<?xml version="1.0" standalone="no"?><!DOCTYPE svg PUBLIC "-//W3C//DTD SVG 1.1//EN" "http://www.w3.org/Graphics/SVG/1.1/DTD/svg11.dtd"><svg t="1691661864096" class="icon" viewBox="0 0 1024 1024" version="1.1" xmlns="http://www.w3.org/2000/svg" p-id="9597" xmlns:xlink="http://www.w3.org/1999/xlink" width="200" height="200"><path d="M33.69984 390.66624c-0.31744 0-0.58368 0.14336-0.8704 0.17408h1.75104c-0.3072-0.04096-0.57344-0.17408-0.88064-0.17408zM27.32032 406.14912l-0.12288-0.17408c0.0512 0.06144 0.07168 0.13312 0.12288 0.17408z" fill="#1A1A1A" p-id="9598"></path><path d="M131.62496 587.9808H242.0736v234.09664H131.62496V587.9808z m27.60704-63.8976c-8.35584 0-16.71168-3.10272-22.50752-9.19552-10.09664-10.7008-8.35584-26.39872 4.05504-35.20512l272.50688-192.2048 127.2832 103.59808 320.65536-236.29824c12.17536-9.00096 30.50496-7.70048 40.83712 2.79552 10.4448 10.496 8.92928 26.29632-3.24608 35.20512L538.70592 458.28096 410.63424 354.07872 177.5616 518.37952a31.65184 31.65184 0 0 1-18.3296 5.70368z" fill="#1A1A1A" p-id="9599"></path><path d="M880.128 297.984c-16.00512 0-28.99968-11.20256-28.99968-24.99584v-106.5984c0-13.80352 12.99456-24.99584 28.99968-24.99584 16.01536 0 29.00992 11.20256 29.00992 24.99584v106.5984c0 13.79328-12.98432 24.99584-29.00992 24.99584z" fill="#1A1A1A" p-id="9600"></path><path d="M880.128 190.48448H756.45952c-16.00512 0-28.98944-11.20256-28.98944-24.99584s12.99456-24.99584 28.98944-24.99584H880.128c16.01536 0 29.00992 11.20256 29.00992 24.99584s-12.98432 24.99584-29.00992 24.99584zM798.464 352.88064h110.44864v468.89984H798.464zM631.74656 454.48192H742.1952v367.40096H631.74656zM465.0496 540.8768h110.44864v280.80128H465.0496zM296.12032 495.17568h110.44864v326.4H296.12032z" fill="#1A1A1A" p-id="9601"></path><path d="M1024 880.64H71.68V81.92H10.24v849.92h1013.76z" fill="#1A1A1A" p-id="9602"></path></svg>