<?xml version="1.0" standalone="no"?><!DOCTYPE svg PUBLIC "-//W3C//DTD SVG 1.1//EN" "http://www.w3.org/Graphics/SVG/1.1/DTD/svg11.dtd"><svg t="1690784956023" class="icon" viewBox="0 0 1024 1024" version="1.1" xmlns="http://www.w3.org/2000/svg" p-id="14044" xmlns:xlink="http://www.w3.org/1999/xlink" width="200" height="200"><path d="M167.5 952c-13.2 0-23.9-10.7-23.9-23.9s10.7-23.9 23.9-23.9c48.3 0 87.4-39.1 87.4-87.4V626.3c0-13.2 10.7-23.9 23.9-23.9s23.9 10.7 23.9 23.9v190.5c-0.1 74.7-61.1 135.2-135.2 135.2z m700.1 0c-74.7 0-135.2-60.5-135.2-135.2V626.3c0-13.2 10.7-23.9 23.9-23.9s23.9 10.7 23.9 23.9v190.5c0 48.3 39.1 87.4 87.4 87.4 13.2 0 23.9 10.7 23.9 23.9S880.8 952 867.6 952z" fill="#333333" p-id="14045"></path><path d="M252.3 323.5c-65 0-117.9-52.8-117.9-117.9S187.8 87.7 252.3 87.7s118.4 52.8 118.4 117.9-53.4 117.9-118.4 117.9z" fill="#27C18F" p-id="14046"></path><path d="M252.3 111.6c51.8 0 94 42.2 94 94s-42.2 94-94 94-94-42.2-94-94 42.2-94 94-94m0-47.7c-78.2 0-141.8 63.5-141.8 141.8s64 141.8 141.8 141.8c78.2 0 141.8-63.5 141.8-141.8S330.5 63.9 252.3 63.9z" fill="#333333" p-id="14047"></path><path d="M772.6 323.5c-65 0-117.9-52.8-117.9-117.9S707.6 87.7 772.6 87.7s117.9 52.8 117.9 117.9-52.9 117.9-117.9 117.9z" fill="#27C18F" p-id="14048"></path><path d="M772.6 111.6c51.8 0 94 42.2 94 94s-42.2 94-94 94-94-42.2-94-94c-0.5-51.8 41.7-94 94-94m0-47.7c-78.2 0-141.8 63.5-141.8 141.8s63.5 141.8 141.8 141.8S914.4 284 914.4 205.7 850.3 63.9 772.6 63.9z" fill="#333333" p-id="14049"></path><path d="M130.4 494.7c0 211.9 171.7 383.6 383.6 383.6s383.6-171.7 383.6-383.6S725.8 111.1 514 111.1 130.4 282.9 130.4 494.7z" fill="#FFBA40" p-id="14050"></path><path d="M514 902.2c-224.6 0-407.5-182.9-407.5-407.5S289.4 87.2 514 87.2s407.5 182.9 407.5 407.5-183 407.5-407.5 407.5z m0-767.2c-198.2 0-359.7 161.6-359.7 359.7S315.8 854.5 514 854.5s359.7-161.6 359.7-359.7S712.1 135 514 135z" fill="#333333" p-id="14051"></path><path d="M514 761c-146.8 0-265.7-119.4-265.7-265.7S367.6 229.5 514 229.5s265.7 119.4 265.7 265.7S660.8 761 514 761z" fill="#27C18F" p-id="14052"></path><path d="M514 252.9c133.6 0 242.4 108.2 242.4 242.4S648.1 737.6 514 737.6 271.6 629.4 271.6 495.2 380.3 252.9 514 252.9m0-47.8c-159.5 0-289.6 130.1-289.6 289.6s130 289.6 289.6 289.6 289.6-130.1 289.6-289.6S674 205.1 514 205.1z" fill="#333333" p-id="14053"></path><path d="M558.2 562.8c-6.1 0-12.2-2.5-16.8-7.1l-44.2-44.2c-4.6-4.6-7.1-10.7-7.1-16.8V352.5c0-13.2 10.7-23.9 23.9-23.9s23.9 10.7 23.9 23.9v132.1l37.1 37.1c9.1 9.1 9.1 24.4 0 33.5-4.6 5.6-10.7 7.6-16.8 7.6zM514 287.4c-13.2 0-23.9-10.7-23.9-23.9V229c0-13.2 10.7-23.9 23.9-23.9s23.9 10.7 23.9 23.9v34.6c-0.1 13.2-10.7 23.8-23.9 23.8zM514 778.2c-13.2 0-23.9-10.7-23.9-23.9v-34.6c0-13.2 10.7-23.9 23.9-23.9s23.9 10.7 23.9 23.9v34.6c-0.1 13.3-10.7 23.9-23.9 23.9zM285.8 515.6h-34.6c-13.2 0-23.9-10.7-23.9-23.9s10.7-23.9 23.9-23.9h34.6c13.2 0 23.9 10.7 23.9 23.9s-10.7 23.9-23.9 23.9zM776.7 515.6h-34.6c-13.2 0-23.9-10.7-23.9-23.9s10.7-23.9 23.9-23.9h34.6c13.2 0 23.9 10.7 23.9 23.9-0.1 13.2-10.7 23.9-23.9 23.9z" fill="#333333" p-id="14054"></path></svg>