<?xml version="1.0" standalone="no"?><!DOCTYPE svg PUBLIC "-//W3C//DTD SVG 1.1//EN" "http://www.w3.org/Graphics/SVG/1.1/DTD/svg11.dtd"><svg t="1690784891108" class="icon" viewBox="0 0 1024 1024" version="1.1" xmlns="http://www.w3.org/2000/svg" p-id="8953" xmlns:xlink="http://www.w3.org/1999/xlink" width="200" height="200"><path d="M991.890286 522.185143c7.552 52.224 1.700571 105.508571-16.969143 154.898286-23.68 62.482286-48.749714 114.907429-101.668572 217.6a8364.288 8364.288 0 0 0-32.420571 63.232 52.589714 52.589714 0 0 1-44.379429 27.904l-95.798857 4.699428c-28.525714 1.316571-53.248-19.510857-54.619428-46.994286l-1.316572-25.508571a578.56 578.56 0 0 1-138.733714 10.368l-17.627429 43.300571a52.242286 52.242286 0 0 1-46.043428 31.488l-96.182857 4.699429c-28.525714 1.389714-53.211429-19.382857-54.674286-46.957714l-4.534857-89.362286c-78.665143-40.594286-139.300571-100.059429-172.452572-170.276571l-64.877714-27.648a44.489143 44.489143 0 0 1-27.794286-38.528l-5.668571-110.390858c-1.371429-24.96 18.998857-45.842286 44.690286-46.994285l42.971428-1.92c17.810286-49.152 48.457143-94.701714 89.782857-133.997715L151.954286 271.286857c-16.073143-27.611429 2.011429-61.659429 34.176-66.102857 75.410286-10.624 150.345143-6.034286 214.107428 22.948571 5.394286-1.462857 11.209143-2.925714 18.834286-4.754285l11.648-2.797715 5.083429 10.843429a170.697143 170.697143 0 0 0 80.036571 80.896l50.285714 24.393143-55.771428 3.474286c-15.140571 0.969143-26.934857 2.139429-34.432 3.437714-1.956571 0.365714-3.949714 0.585143-5.942857 0.64a271.268571 271.268571 0 0 0-8.685715 1.554286c-5.485714 1.060571-8.411429 5.632-7.168 9.6l0.237715 0.768c1.462857 3.401143 6.034286 5.76 10.788571 4.900571 75.172571-14.427429 157.988571-13.933714 232.118857 14.409143 4.717714 1.828571 10.057143 0 12.434286-4.022857 2.029714-3.712 0.201143-8.301714-4.589714-10.130286-15.981714-6.052571-26.276571-9.398857-37.010286-11.684571-1.664-0.365714-6.290286-1.133714-12.068572-1.993143l-57.014857-8.521143 54.144-19.803429a172.068571 172.068571 0 0 0 85.010286-67.529143l6.546286-10.057142 11.154285 4.406857a453.010286 453.010286 0 0 1 109.257143 61.787428c69.540571 53.723429 114.761143 130.724571 126.756572 214.235429z m-683.373715-5.193143a34.596571 34.596571 0 0 0 32.731429-36.169143 33.956571 33.956571 0 0 0-35.84-32.420571 34.56 34.56 0 0 0-32.749714 36.150857 33.993143 33.993143 0 0 0 35.858285 32.438857z" fill="#FE6F5A" p-id="8954"></path><path d="M598.985143 339.382857c90.258286 0 163.474286-73.234286 163.474286-163.456s-73.216-163.474286-163.474286-163.474286a163.474286 163.474286 0 0 0 0 326.948572z" fill="#FFC43F" p-id="8955"></path><path d="M543.780571 176.64a14.043429 14.043429 0 0 1-12.836571-6.637714 13.641143 13.641143 0 0 1 0-14.281143 14.043429 14.043429 0 0 1 12.836571-6.637714h32.310858l-35.712-35.218286a13.677714 13.677714 0 0 1-3.620572-13.330286 13.897143 13.897143 0 0 1 9.874286-9.764571 14.116571 14.116571 0 0 1 13.531428 3.584l42.130286 41.508571 42.075429-41.508571a14.116571 14.116571 0 0 1 13.531428-3.584 13.897143 13.897143 0 0 1 9.874286 9.764571 13.677714 13.677714 0 0 1-3.620571 13.330286l-35.657143 35.163428h26.569143c7.716571 0 13.970286 6.180571 13.970285 13.787429a13.878857 13.878857 0 0 1-13.970285 13.769143h-39.625143v18.176h39.625143c4.992 0 9.6 2.633143 12.105142 6.893714a13.604571 13.604571 0 0 1 0 13.769143 14.006857 14.006857 0 0 1-12.105142 6.893714h-39.625143v40.155429a13.750857 13.750857 0 0 1-6.710857 12.653714 14.153143 14.153143 0 0 1-14.482286 0 13.750857 13.750857 0 0 1-6.729143-12.653714v-40.155429h-43.739429a13.897143 13.897143 0 0 1-13.147428-13.787428 13.897143 13.897143 0 0 1 13.147428-13.769143h43.629715V176.64h-43.629715z" fill="#5D101D" p-id="8956"></path></svg>